<svg xmlns="http://www.w3.org/2000/svg" width="1774" height="887" viewBox="0 0 1774 887" role="img" aria-label="Akamata ASCII art hero">
<rect width="1774" height="887" fill="#050b0b"/>
<g font-family="Menlo,Consolas,monospace" font-size="25" xml:space="preserve">
<g fill="#12352b"><text x="450" y="100">..::;;;;;:::::::;;:::::::::::::;;;;;;;:::::......</text><text x="400" y="140">.:;##%%@@@%%##;::::..:::::;;;;;::::...::::::..</text><text x="330" y="180">..::;##%%%%%%##;::::::....::::::;;;::::::::::.</text><text x="260" y="220">::::;;;;;;;:::::::....::::::::::::;;;;;::::::.</text><text x="380" y="260">..::^^^..::^^^..::::::;;;;;::::::::::::::....</text><text x="230" y="300">:::::.....:::::....:::::::::::::;;;;;::::::::</text></g>
<g fill="#d18a42"><text x="950" y="320">                 .-==+*#%%%%%%#*+=--.</text><text x="950" y="350">              .-=*#%%@@@%%%%%%@@@%%#*=-.</text><text x="950" y="380">            .-*#%%@@@%%##%%%%##%%@@@%%#*-.</text><text x="980" y="410">          .-*#%%@@%%#*=-::::-=*#%%@@%%#*-.</text><text x="1030" y="440">        .-*#%%@@%%#=-.      .-=#%%@@%%#*-.</text><text x="1080" y="470">      .-*#%%@@%%#=.          .=#%%@@%%#*-.</text><text x="1110" y="500">    .-*#%%@@%%#=.              .=#%%@@%%#*-.</text><text x="1080" y="530">  .-*#%%@@%%#=.                  .=#%%@@%%#*-.</text><text x="1020" y="560"> .-*#%%@@%%#=.                      .=#%%@@%%#*-.</text><text x="960" y="590">.-*#%%@@%%#=.                          .=#%%@@%%#*-.</text><text x="900" y="620">-*#%%@@%%#=.                              .=#%%@@%%#*-.</text><text x="850" y="650">*#%%@@%%#=.                                  .=#%%@@%%#*-.</text><text x="850" y="680">*#%%@@%%#=.          .-=+*#%%%%#*+=-.         .=#%%@@%%#*-.</text><text x="850" y="710">-*#%%@@%%#=.      .-*#%%@@@%%@@@%%#*-.     .=#%%@@%%#*-.</text><text x="880" y="740">.-*#%%@@%%#=.  .-*#%%@@%%##%%@@%%#*-.  .=#%%@@%%#*-.</text><text x="950" y="770"> .-*#%%@@%%#= -*#%%@@%%#*==*#%%@@%%#*- =#%%@@%%#*-.</text></g>
<g fill="#0b5b4b"><text x="120" y="380">:::::::;;;;;;::::::::::::::;;;;;;:::::::::::::..</text><text x="80" y="420">..:::::;;;;;;::::::^^^:::::;;;;;;::::::::;;;;;;</text><text x="40" y="460">::::;;;;;::::::::^^^:::::::::::;;;;;;::::::::::</text><text x="100" y="500">..::;;;;;:::::^^^:::::;;;;;;;:::::::::;;;;;;..</text><text x="30" y="540">::::;;;;;;::::::::::::::;;;;;;;::::::;;;;;;:::</text><text x="80" y="580">..::::;;;;;;:::::::;;;;;:::::::::;;;;;;:::::..</text><text x="20" y="620">::::::;;;;::::::::;;;;;;::::::::;;;;;;;:::::::</text><text x="70" y="660">..:::;;;;;;:::::;;;;;;:::::::;;;;;;:::::::...</text><text x="20" y="700">::::;;;;;:::::;;;;;;::::::::;;;;;;;::::::::::</text></g>
<g fill="#050505"><text x="980" y="350">              ####      ####      ####</text><text x="1030" y="440">          ####      ####      ####</text><text x="1080" y="530">      ####      ####      ####</text><text x="900" y="620">      ####      ####      ####</text><text x="900" y="710">          ####      ####      ####</text></g>
<g fill="#45d9d0"><text x="88" y="142">.  .    .      .       .      .     .</text><text x="130" y="802">::..:::::..::::..:::::..::::..:::::..::</text><text x="610" y="820">01001001 01001110 01000100 01000101 01011000</text></g>
</g></svg>
